#!OML:ASF H:\LiuWeirdWalks\Patient Classification 1\Patient 1\Session 1\male.ASF
:FULLY-SPECIFIED
:DEGREES
189
root 0.231378 17.2115 -21.529 11.5411 3.40612 -2.16712
lowerback 7.18167 4.70736 1.54673
upperback -1.9452 6.49219 0.958716
thorax -5.9859 3.1622 -0.653255
lowerneck -25.438 -0.999092 6.60856
upperneck 18.5604 -1.85489 -8.10496
head 9.9275 -1.38594 -4.2721
rclavicle -5.37713e-014 -3.4191e-014
rhumerus -30.8917 -3.72951 -83.0765
rradius 30.3557
rwrist -5.30673
rhand -16.0714 -0.50124
rfingers 7.12502
rthumb 10.1313 -30.2373
lclavicle -5.37713e-014 -3.4191e-014
lhumerus -54.754 22.4292 56.1405
lradius 17.6842
lwrist -8.35929
lhand -14.2438 3.16712
lfingers 7.12502
lthumb 11.894 32.8093
rfemur 18.9383 -1.21626 24.1502
rtibia 12.6399
rfoot 6.84922 -20.4579
rtoes -21.7313
lfemur -47.5186 -1.84609 -16.0253
ltibia 39.2052
lfoot -12.9711 11.6157
ltoes -17.242
190
root 0.267174 17.2437 -21.2913 11.4128 3.45481 -2.06491
lowerback 7.20901 4.58738 1.41801
upperback -1.95772 6.32036 0.951215
thorax -6.03009 3.08129 -0.573545
lowerneck -25.8824 -1.45331 5.40909
upperneck 18.8883 -2.27689 -7.14171
head 10.1156 -1.55161 -3.8111
rclavicle -5.1684e-014 -9.54166e-015
rhumerus -31.1163 -3.40864 -83.134
rradius 30.4987
rwrist -5.15334
rhand -16.2341 0.0461031
rfingers 7.12502
rthumb 9.97434 -29.6976
lclavicle -5.1684e-014 -9.54166e-015
lhumerus -55.3989 23.368 54.8557
lradius 17.0652
lwrist -9.33387
lhand -14.4274 3.02098
lfingers 7.12502
lthumb 11.717 32.6733
rfemur 17.1056 -1.83288 23.7133
rtibia 16.9279
rfoot 8.36878 -19.9779
rtoes -20.8765
lfemur -46.6509 -1.66287 -16.3811
ltibia 39.4504
lfoot -12.7318 11.6064
ltoes -17.2249
191
root 0.303183 17.2774 -21.0548 11.258 3.4766 -1.9507
lowerback 7.24929 4.45962 1.26975
upperback -1.95957 6.13648 0.95024
thorax -6.07261 2.99538 -0.475121
lowerneck -26.0705 -1.68986 4.75373
upperneck 19.09 -2.48399 -6.62249
head 10.2232 -1.63053 -3.55854
rclavicle 2.32578e-014 -5.56597e-015
rhumerus -31.3127 -3.11081 -83.1724
rradius 30.5205
rwrist -5.01435
rhand -16.4018 0.3695
rfingers 7.12502
rthumb 9.81248 -29.3819
lclavicle 2.32578e-014 -5.56597e-015
lhumerus -55.998 24.2557 53.696
lradius 16.4826
lwrist -10.1591
lhand -14.6217 2.94111
lfingers 7.12502
lthumb 11.5296 32.604
rfemur 15.3271 -2.41513 23.2522
rtibia 21.0369
rfoot 10.3896 -19.5598
rtoes -18.9382
lfemur -45.6849 -1.42557 -16.7452
ltibia 39.5964
lfoot -12.4886 11.4288
ltoes -17.2345
192
root 0.339253 17.3126 -20.8193 11.0991 3.4531 -1.77768
lowerback 7.28448 4.32898 1.04533
upperback -1.95436 5.94049 0.939859
thorax -6.11067 2.90634 -0.341885
lowerneck -26.0093 -1.59213 4.81706
upperneck 19.209 -2.36157 -6.64511
head 10.2628 -1.57083 -3.56108
rclavicle 3.18055e-015 -3.97569e-016
rhumerus -31.4809 -2.87188 -83.1874
rradius 30.4485
rwrist -4.88081
rhand -16.521 0.436746
rfingers 7.12502
rthumb 9.69749 -29.32
lclavicle 3.18055e-015 -3.97569e-016
lhumerus -56.5305 25.0901 52.6801
lradius 15.9395
lwrist -10.8447
lhand -14.8131 2.92067
lfingers 7.12502
lthumb 11.345 32.5938
rfemur 13.5009 -2.9253 22.726
rtibia 25.1294
rfoot 12.829 -19.2347
rtoes -15.4985
lfemur -44.6444 -1.15593 -17.1606
ltibia 39.6286
lfoot -12.2191 11.1298
ltoes -17.2839
193
root 0.373974 17.3493 -20.5861 10.9405 3.39137 -1.50563
lowerback 7.33388 4.1935 0.694563
upperback -1.94459 5.7247 0.911514
thorax -6.16122 2.81184 -0.155681
lowerneck -26.0385 -1.46082 4.94429
upperneck 19.3667 -2.20428 -6.72797
head 10.3333 -1.49861 -3.59421
rclavicle 4.00551e-014 -1.07344e-014
rhumerus -31.6243 -2.71958 -83.1725
rradius 30.3015
rwrist -4.72424
rhand -16.5749 0.301508
rfingers 7.12502
rthumb 9.64555 -29.4577
lclavicle 4.00551e-014 -1.07344e-014
lhumerus -56.9595 25.8288 51.8804
lradius 15.4479
lwrist -11.3465
lhand -14.9698 3.02524
lfingers 7.12502
lthumb 11.1939 32.7066
rfemur 11.5875 -3.36429 22.1113
rtibia 29.2641
rfoot 15.0715 -18.8707
rtoes -12.0895
lfemur -43.5422 -0.877651 -17.6669
ltibia 39.5393
lfoot -11.9305 10.7616
ltoes -17.311
194
root 0.407251 17.387 -20.3547 10.7851 3.29228 -1.11569
lowerback 7.38144 4.05458 0.201607
upperback -1.92325 5.48847 0.860146
thorax -6.20734 2.71237 0.0891883
lowerneck -26.1728 -1.31063 5.09298
upperneck 19.6246 -2.02982 -6.81225
head 10.4605 -1.41741 -3.63472
rclavicle -9.64106e-015 -1.43125e-014
rhumerus -31.7518 -2.66631 -83.1188
rradius 30.1157
rwrist -4.5189
rhand -16.549 -0.0307847
rfingers 7.12502
rthumb 9.6705 -29.7888
lclavicle -9.64106e-015 -1.43125e-014
lhumerus -57.244 26.4364 51.3739
lradius 15.0248
lwrist -11.6329
lhand -15.0642 3.18872
lfingers 7.12502
lthumb 11.1028 32.875
rfemur 9.57964 -3.75222 21.3914
rtibia 33.4391
rfoot 17.1962 -18.6321
rtoes -8.07739
lfemur -42.3821 -0.609615 -18.2858
ltibia 39.3357
lfoot -11.6754 10.3832
ltoes -17.2657
195
root 0.438545 17.4256 -20.1258 10.6354 3.16667 -0.62867
lowerback 7.43377 3.91083 -0.413322
upperback -1.89371 5.23223 0.791273
thorax -6.25339 2.6074 0.387025
lowerneck -26.3086 -1.18077 5.1595
upperneck 19.8942 -1.8733 -6.81084
head 10.5937 -1.3397 -3.63342
rclavicle 4.57205e-015 2.06736e-014
rhumerus -31.8802 -2.71434 -83.0242
rradius 29.9112
rwrist -4.27128
rhand -16.459 -0.45293
rfingers 7.12502
rthumb 9.75737 -30.2069
lclavicle 4.57205e-015 2.06736e-014
lhumerus -57.3661 26.9204 51.1682
lradius 14.6637
lwrist -11.7282
lhand -15.1042 3.39695
lfingers 7.12502
lthumb 11.0642 33.0853
rfemur 7.4747 -4.13029 20.593
rtibia 37.6333
rfoot 18.7818 -18.5695
rtoes -4.56772
lfemur -41.1719 -0.364731 -18.9924
ltibia 39.0306
lfoot -11.498 10.0329
ltoes -17.0757
196
root 0.468538 17.464 -19.8978 10.4593 3.00905 -0.0620023
lowerback 7.48598 3.76912 -1.11538
upperback -1.83974 4.96832 0.70697
thorax -6.27522 2.50168 0.720553
lowerneck -26.4504 -1.05052 5.1962
upperneck 20.2 -1.71831 -6.75346
head 10.743 -1.25751 -3.60787
rclavicle 1.60022e-014 9.54166e-015
rhumerus -32.0229 -2.86832 -82.8852
rradius 29.7058
rwrist -3.97
rhand -16.3587 -0.877061
rfingers 7.12502
rthumb 9.85407 -30.6265
lclavicle 1.60022e-014 9.54166e-015
lhumerus -57.285 27.2391 51.3264
lradius 14.3652
lwrist -11.6139
lhand -15.0774 3.62525
lfingers 7.12502
lthumb 11.0901 33.3122
rfemur 5.34025 -4.52817 19.7236
rtibia 41.796
rfoot 19.6418 -18.6774
rtoes -1.6397
lfemur -39.8757 -0.138231 -19.7775
ltibia 38.6459
lfoot -11.445 9.74337
ltoes -16.7395
197
root 0.496422 17.5013 -19.6728 10.266 2.85783 0.56204
lowerback 7.56445 3.61868 -1.88449
upperback -1.7807 4.68478 0.616544
thorax -6.30592 2.38848 1.08747
lowerneck -26.5205 -0.916247 5.25287
upperneck 20.4552 -1.56386 -6.69752
head 10.8611 -1.17381 -3.58238
rclavicle -6.77856e-014 -2.42517e-014
rhumerus -32.2036 -3.08957 -82.713
rradius 29.5096
rwrist -3.64539
rhand -16.2613 -1.26536
rfingers 7.12502
rthumb 9.94807 -31.0103
lclavicle -6.77856e-014 -2.42517e-014
lhumerus -56.9974 27.3487 51.8826
lradius 14.1431
lwrist -11.2454
lhand -14.982 3.81606
lfingers 7.12502
lthumb 11.1821 33.4981
rfemur 3.17851 -4.98294 18.8248
rtibia 45.8762
rfoot 19.686 -19.0093
rtoes 0.775821
lfemur -38.5181 0.0406847 -20.606
ltibia 38.1959
lfoot -11.5265 9.50404
ltoes -16.202
